<svg xmlns="http://www.w3.org/2000/svg" fill="none" viewBox="0 0 133 55" height="55" width="133">
<mask height="55" width="133" y="0" x="0" maskUnits="userSpaceOnUse" style="mask-type:luminance" id="mask0_3_859">
<path fill="white" d="M132.989 0H0V54.837H132.989V0Z"></path>
</mask>
<g mask="url(#mask0_3_859)">
<path fill="#cd0004" d="M30.987 25.8998C29.335 25.3368 28.117 29.4568 23.518 31.2928C22.984 31.5058 18.645 33.1928 15.196 31.0158C14.4721 30.6373 13.8429 30.1004 13.3552 29.445C12.8675 28.7897 12.5338 28.0329 12.379 27.2308C12.3053 26.4626 12.4218 25.6882 12.7183 24.9757C13.0148 24.2633 13.4821 23.6348 14.079 23.1458C14.4904 22.7658 14.9809 22.4817 15.5152 22.314C16.0495 22.1463 16.6143 22.0991 17.169 22.1758C18.065 22.3933 18.8381 22.9572 19.319 23.7438C20.428 25.5968 18.98 27.3638 19.696 28.0438C20.81 29.1078 26.086 26.5278 28.889 22.0838C29.646 20.8838 31.15 18.4978 30.229 16.3578C30.0796 15.9565 29.8507 15.5895 29.556 15.2788C29.2613 14.9681 28.9069 14.7202 28.514 14.5498C26.685 13.9248 25.561 16.2548 22.12 17.2178C21.186 17.4788 17.656 18.2968 15.59 16.3958C14.9598 15.7787 14.5257 14.9894 14.342 14.1268C14.0803 13.1337 14.0782 12.09 14.336 11.0959C14.5938 10.1018 15.1027 9.19058 15.814 8.44978C17.287 6.95978 19.895 5.98078 21.478 6.93778C23.75 8.31178 22.161 12.6158 23.802 13.3148C25.622 14.0908 29.55 9.63478 31.136 5.13978C31.452 4.24478 32.422 1.49478 31.369 0.605784C30.669 0.0127844 29.754 0.826784 27.439 0.976784C24.988 1.13678 24.352 0.332784 21.345 0.0687843C19.712 -0.0700794 18.0678 0.00150698 16.453 0.281784C13.327 0.789093 10.3661 2.03151 7.81403 3.90678C4.2332 6.65139 1.68898 10.5292 0.597031 14.9068C-0.830969 20.7398 0.119031 28.7828 5.45803 33.3568C9.77703 37.0568 15.903 37.8108 19.283 37.5138C21.1855 37.2081 23.1091 37.0523 25.036 37.0478C28.383 37.1188 29.436 37.7478 30.644 36.9358C32.464 35.7218 32.461 32.7408 32.444 31.0428C32.429 29.6618 32.393 26.3758 30.989 25.8968"></path>
<path fill="#cd0004" d="M42.145 16.044C44.467 15.861 43.67 17.434 44.099 18.786C44.528 20.138 46.004 18.028 46.499 17.618C50.426 14.366 56.789 16.068 57.31 21.481C57.541 23.881 57.187 31.242 58.11 32.881C58.417 33.429 59.182 33.819 59.316 34.607C59.3893 34.8594 59.4105 35.124 59.3785 35.3849C59.3465 35.6457 59.2619 35.8973 59.1298 36.1245C58.9977 36.3517 58.8208 36.5497 58.61 36.7066C58.3991 36.8634 58.1586 36.9758 57.903 37.037C56.153 37.673 50.566 37.648 48.753 37.137C47.396 36.754 46.638 35.807 47.253 34.415C47.443 33.983 47.873 33.638 48.085 33.242C48.932 31.657 49.127 25.31 48.526 23.63C48.395 23.1815 48.1196 22.7888 47.7427 22.5127C47.3657 22.2366 46.9082 22.0926 46.4411 22.1029C45.974 22.1133 45.5233 22.2775 45.159 22.57C44.7946 22.8626 44.537 23.2671 44.426 23.721C43.871 25.271 43.833 30.478 44.233 32.088C44.638 33.719 47.005 35.281 44.327 36.743C42.488 37.743 35.883 37.875 34.096 36.816C33.8552 36.673 33.6486 36.479 33.4908 36.2477C33.333 36.0163 33.2277 35.7533 33.1823 35.4769C33.1369 35.2006 33.1526 34.9176 33.2282 34.648C33.3038 34.3783 33.4376 34.1285 33.62 33.916C33.862 33.559 34.275 33.351 34.49 32.934C35.119 31.716 35.247 26.18 35.244 24.567C35.1989 23.9204 35.1164 23.277 34.997 22.64C34.549 21.64 32.165 20.927 34.316 19.022C35.806 17.702 40.172 16.201 42.15 16.045"></path>
<path fill="#cd0004" d="M95.798 15.891C97.5842 15.7639 99.3718 16.1174 100.975 16.9147C102.579 17.712 103.939 18.9241 104.916 20.425C106.294 22.652 107.09 27.104 103.482 27.425C100.636 27.68 97.109 27.055 94.356 27.412C92.937 27.596 94.097 29.512 94.599 30.112C95.2975 30.8612 96.1879 31.4048 97.1736 31.6837C98.1592 31.9626 99.2025 31.9662 100.19 31.694C101.411 31.418 104.547 29.081 105.066 31.383C106.144 36.17 98.278 38.026 94.83 37.754C80.746 36.645 81.412 16.546 95.799 15.884M95.326 20.041C93.681 20.38 92.591 23.48 95.126 23.716C96.317 23.827 98.409 24.037 98.459 22.393C98.514 20.583 97.001 19.693 95.322 20.041"></path>
<path fill="#cd0004" d="M122.387 15.881C123.153 15.8792 123.909 16.0616 124.59 16.4128C125.27 16.764 125.857 17.2737 126.3 17.8991C126.742 18.5244 127.028 19.247 127.133 20.0059C127.238 20.7649 127.159 21.538 126.903 22.26C126.671 22.9684 126.287 23.6175 125.778 24.1615C125.269 24.7055 124.646 25.1313 123.954 25.4088C123.263 25.6863 122.518 25.8088 121.774 25.7677C121.03 25.7266 120.304 25.523 119.647 25.171C119.09 24.842 117.737 23.171 117.241 24.182C116.819 25.043 116.956 30.082 117.2 31.167C117.625 33.059 119.386 32.576 120.129 33.951C121.043 35.643 119.61 36.824 118.065 37.199C115.794 37.751 109.415 37.781 107.325 36.868C106.978 36.7592 106.665 36.5657 106.412 36.305C106.159 36.0443 105.975 35.7247 105.877 35.375C105.366 33.557 107.22 33.225 107.701 31.936C108.235 30.503 107.986 28.836 108.044 27.336C108.091 26.103 108.65 23.012 107.667 22.168C107.201 21.768 106.411 21.612 106.23 20.827C105.612 18.148 110.858 16.76 112.81 16.354C113.792 16.154 116.125 15.518 116.667 16.57C116.98 17.179 116.619 20.631 118.021 19.091C119.406 17.57 119.731 15.978 122.387 15.878"></path>
<path fill="#cd0004" d="M83.288 30.278C82.823 23.256 83.907 15.434 83.295 8.507C83.207 7.515 82.866 6.749 81.807 6.598C79.874 6.322 73.607 7.698 72.219 9.106C71.7915 9.56068 71.5614 10.1661 71.579 10.79C71.871 12.309 73.751 11.837 74.211 13.109C74.473 13.835 74.678 16.18 74.14 16.735C73.617 17.275 71.856 16.219 71.095 16.068C62.756 14.415 56.929 23.225 59.495 30.747C61.095 35.436 66.677 39.447 71.607 37.127C72.344 36.781 73.772 35.384 74.4 35.444C75.364 35.537 75.021 37.607 76.434 37.713C77.7666 37.5972 79.0816 37.3288 80.353 36.913C81.867 36.473 84.575 35.587 85.217 34.057C86.189 31.74 83.294 32.411 83.288 30.276M71.488 30.083C70.8354 30.3864 70.16 30.6381 69.468 30.836C69.382 30.859 69.181 30.936 69.109 30.903C68.0702 29.7969 67.2898 28.4741 66.824 27.03C66.414 25.54 66.579 23.109 68.417 22.669C69.0207 22.5666 69.6407 22.7009 70.1478 23.044C70.655 23.3871 71.0104 23.9125 71.14 24.511C71.185 24.667 71.199 24.871 71.24 25.004C71.247 25.025 71.269 25.062 71.286 25.061C71.303 25.06 71.486 24.891 71.528 24.861C72.64 24.061 73.884 23.708 74.98 24.74C77.469 27.085 73.314 29.271 71.486 30.083"></path>
<path fill="#cd0004" d="M48.23 54.682C48.022 54.682 47.9183 54.6093 47.919 54.464V54.417C47.919 54.3237 47.984 54.2303 48.114 54.137C48.2563 54.0322 48.3867 53.9121 48.503 53.779C48.6295 53.6434 48.6993 53.4645 48.698 53.279V45.947C48.7054 45.8598 48.6947 45.772 48.6666 45.6891C48.6386 45.6061 48.5938 45.5299 48.535 45.465C48.441 45.3688 48.3181 45.3059 48.185 45.286C48.0645 45.2716 47.9467 45.2403 47.835 45.193C47.7856 45.1755 47.7432 45.1427 47.7139 45.0993C47.6845 45.056 47.6699 45.0043 47.672 44.952V44.89C47.672 44.765 47.791 44.646 48.03 44.532L49.93 43.691C50.028 43.6415 50.1349 43.6119 50.2444 43.604C50.3539 43.5961 50.4639 43.61 50.568 43.645C50.6392 43.6732 50.6998 43.7227 50.7416 43.7869C50.7833 43.851 50.8041 43.9265 50.801 44.003C50.7744 44.1658 50.7104 44.3202 50.614 44.454C50.4844 44.6812 50.4197 44.9396 50.427 45.201V53.281C50.4247 53.4291 50.4711 53.5738 50.559 53.693C50.6359 53.8014 50.7306 53.8961 50.839 53.973C50.9366 54.0399 51.0302 54.1127 51.119 54.191C51.1556 54.2173 51.1863 54.251 51.2091 54.2899C51.2318 54.3289 51.2461 54.3722 51.251 54.417V54.464C51.251 54.6093 51.1473 54.682 50.94 54.682H48.23Z"></path>
<path fill="#cd0004" d="M58.722 43.473C59.3118 43.4565 59.8966 43.5856 60.4246 43.849C60.9525 44.1124 61.4074 44.5019 61.749 44.983C62.5512 46.1576 62.9473 47.5623 62.877 48.983C62.9576 50.4865 62.5735 51.9783 61.777 53.256C61.4337 53.7646 60.9659 54.1768 60.4182 54.4533C59.8705 54.7299 59.2611 54.8616 58.648 54.836C57.7289 54.8786 56.8218 54.6128 56.071 54.081C55.7806 53.8944 55.5393 53.6408 55.3673 53.3414C55.1954 53.0421 55.0979 52.7059 55.083 52.361C55.0775 52.2412 55.0976 52.1217 55.1419 52.0103C55.1862 51.8989 55.2537 51.7983 55.34 51.715C55.5203 51.5507 55.7582 51.4641 56.002 51.474C56.1172 51.4727 56.2315 51.4955 56.3374 51.541C56.4433 51.5865 56.5385 51.6536 56.617 51.738C56.7955 51.9257 56.9379 52.1447 57.037 52.384C57.1463 52.6387 57.2633 52.893 57.388 53.147C57.513 53.402 57.6971 53.6235 57.925 53.793C58.1707 53.9732 58.4695 54.0661 58.774 54.057C59.1463 54.0522 59.5079 53.9311 59.8079 53.7105C60.1079 53.4899 60.3314 53.181 60.447 52.827C60.8599 51.7714 61.0585 50.6441 61.031 49.511C60.7249 49.8951 60.3293 50.1982 59.8787 50.3936C59.4282 50.5891 58.9366 50.6709 58.447 50.632C57.9788 50.6476 57.5122 50.5704 57.074 50.4047C56.6359 50.2391 56.2348 49.9884 55.894 49.667C55.5435 49.3061 55.2724 48.8759 55.0982 48.4041C54.9239 47.9322 54.8502 47.429 54.882 46.927C54.8722 46.4626 54.9631 46.0016 55.1485 45.5757C55.3339 45.1499 55.6094 44.7692 55.956 44.46C56.7169 43.7842 57.7101 43.4296 58.727 43.471M58.976 49.853C59.2425 49.8655 59.5087 49.8213 59.7569 49.7234C60.0051 49.6255 60.2297 49.4761 60.416 49.285C60.7801 48.89 60.9732 48.3669 60.953 47.83C60.8667 46.9172 60.5795 46.0348 60.112 45.246C59.944 44.9425 59.6977 44.6896 59.3986 44.5137C59.0996 44.3378 58.7589 44.2454 58.412 44.246C58.1684 44.2377 57.9264 44.2886 57.7068 44.3944C57.4872 44.5001 57.2965 44.6574 57.151 44.853C56.8175 45.3308 56.6532 45.9062 56.684 46.488C56.6621 47.323 56.8868 48.146 57.33 48.854C57.4907 49.1511 57.7274 49.4002 58.0158 49.5759C58.3043 49.7516 58.6343 49.8476 58.972 49.854"></path>
<path fill="#cd0004" d="M74.133 51.195C74.309 51.195 74.3973 51.273 74.398 51.429V51.818C74.398 51.974 74.3097 52.052 74.133 52.052H72.981V53.36C72.976 53.5328 73.0339 53.7016 73.144 53.835C73.2423 53.9546 73.3548 54.0617 73.479 54.154C73.5267 54.1811 73.5672 54.2194 73.597 54.2655C73.6267 54.3117 73.6449 54.3643 73.65 54.419V54.466C73.65 54.6113 73.5463 54.684 73.339 54.684H70.786C70.5787 54.684 70.475 54.6113 70.475 54.466V54.419C70.4789 54.3658 70.495 54.3142 70.5221 54.2683C70.5491 54.2223 70.5864 54.1832 70.631 54.154C70.7461 54.0594 70.8504 53.9524 70.942 53.835C71.0478 53.6997 71.103 53.5317 71.098 53.36V52.051H66.428C66.086 52.051 65.9147 51.911 65.914 51.631V51.569C65.9077 51.342 65.9731 51.1187 66.101 50.931L70.725 44.144C70.8101 43.9908 70.934 43.8627 71.0843 43.7725C71.2345 43.6823 71.4058 43.6332 71.581 43.63H72.671C72.878 43.63 72.982 43.739 72.982 43.957V51.196L74.133 51.195ZM66.957 51.195H71.098L71.114 45.14L66.957 51.195Z"></path>
<path fill="#cd0004" d="M84.563 43.629C84.781 43.629 84.89 43.7223 84.89 43.909V44.08C84.8655 44.3071 84.8022 44.5283 84.703 44.734L80.78 54.354C80.7476 54.4546 80.6824 54.5415 80.5949 54.6008C80.5073 54.6601 80.4025 54.6883 80.297 54.681H79.176C79.1164 54.6857 79.0567 54.6736 79.0036 54.646C78.9506 54.6184 78.9064 54.5765 78.876 54.525C78.8451 54.4796 78.8273 54.4266 78.8245 54.3717C78.8217 54.3169 78.834 54.2623 78.86 54.214L83.577 45.076H78.891C78.801 45.0772 78.7123 45.0973 78.6305 45.1348C78.5487 45.1724 78.4756 45.2266 78.416 45.294C78.28 45.4333 78.1717 45.5972 78.097 45.777C78.0271 45.9488 77.9357 46.1111 77.825 46.26C77.7902 46.3201 77.7418 46.3712 77.6835 46.409C77.6253 46.4469 77.559 46.4705 77.49 46.478H77.319C77.101 46.478 77.0077 46.3587 77.039 46.12L77.366 44.034C77.374 43.9214 77.4258 43.8165 77.5103 43.7417C77.5948 43.6669 77.7053 43.6282 77.818 43.634L84.563 43.629Z"></path>
<path fill="#cd0004" d="M126.571 7.669C127.035 7.18606 127.621 6.8372 128.266 6.65917C128.912 6.48114 129.593 6.48054 130.239 6.65744C130.885 6.83433 131.471 7.18216 131.936 7.66429C132.401 8.14642 132.727 8.74498 132.88 9.39692C133.033 10.0489 133.008 10.73 132.806 11.3687C132.605 12.0073 132.235 12.5797 131.735 13.0257C131.235 13.4716 130.625 13.7746 129.967 13.9026C129.31 14.0306 128.63 13.9789 128 13.753C127.41 13.5499 126.881 13.2006 126.462 12.7375C126.044 12.2745 125.749 11.713 125.606 11.1054C125.464 10.4977 125.477 9.86386 125.646 9.26292C125.815 8.66199 126.133 8.1136 126.571 7.669ZM131.443 12.248C131.771 11.8947 132.006 11.4659 132.128 10.9996C132.251 10.5334 132.256 10.0442 132.143 9.57553C132.03 9.10689 131.804 8.67336 131.483 8.31352C131.162 7.95368 130.758 7.67868 130.305 7.513C129.792 7.31658 129.235 7.26598 128.696 7.36681C128.156 7.46763 127.655 7.71596 127.248 8.08423C126.841 8.4525 126.544 8.92634 126.389 9.45319C126.235 9.98004 126.23 10.5393 126.374 11.069C126.528 11.5732 126.812 12.028 127.197 12.3879C127.582 12.7478 128.055 13.0001 128.569 13.1196C129.082 13.239 129.618 13.2213 130.122 13.0684C130.627 12.9154 131.082 12.6325 131.443 12.248Z"></path>
<path fill="#cd0004" d="M127.71 8.134C127.91 8.109 128.103 8.073 128.3 8.052C129.049 7.973 130.152 7.952 130.666 8.606C130.815 8.80841 130.892 9.05487 130.884 9.30607C130.877 9.55727 130.786 9.79875 130.625 9.992C130.511 10.1149 130.375 10.2165 130.225 10.292C130.219 10.292 130.207 10.292 130.213 10.308C130.219 10.324 130.368 10.442 130.397 10.473C130.774 11.031 130.998 11.6783 131.046 12.35C131.046 12.3546 131.045 12.3591 131.042 12.363C131.04 12.3669 131.036 12.37 131.032 12.372H130.286C130.263 11.7533 130.023 11.1624 129.608 10.703C129.503 10.6293 129.383 10.5804 129.257 10.56H128.465V12.36L128.451 12.373H127.719L127.705 12.36L127.71 8.134ZM128.47 8.665V9.942C128.47 9.952 128.492 9.955 128.502 9.956C128.746 9.97007 128.991 9.96707 129.235 9.947C129.635 9.926 130.115 9.847 130.146 9.347C130.192 8.596 129.224 8.639 128.713 8.647L128.47 8.665Z"></path>
</g>
</svg>
