<?xml version="1.0" encoding="UTF-8"?>
<svg id="katman_1" xmlns="http://www.w3.org/2000/svg" width="99" height="30" version="1.1" viewBox="0 0 99 30">
  <!-- Generator: Adobe Illustrator 30.3.0, SVG Export Plug-In . SVG Version: 2.1.3 Build 182)  -->
  <defs>
    <style>
      .st0 {
        fill-rule: evenodd;
      }

      .st0, .st1 {
        fill: #ee7624;
      }
    </style>
  </defs>
  <g id="Symbols">
    <g id="nav_x2F_logo_x2F_migros_x2F_bg-white">
      <path id="logo_migrosKurumsal" class="st0" d="M90.63,0c3.59,0,7.89,1.6,7.69,5.69v.2h-4.89c0-.7-.5-1.6-.9-2s-1.4-.7-2.2-.7c-1.8,0-2.2,1.1-2.2,1.8.1,1.3,1.7,1.6,3,2,3,.8,7.79,1.3,7.79,6.09,0,3.79-4.19,5.49-8.39,5.49s-7.89-1.2-7.99-5.79v-.3h5.09c0,1.7,1.2,3.19,3,3.19,1.1,0,2.8-.3,2.8-2.1,0-2.2-3.99-1.8-7.89-3.49-1.8-.8-2.8-2.6-2.8-4.59.2-4.19,4.19-5.49,7.89-5.49ZM72.86.1c5.49,0,8.89,3.39,8.89,9.18s-3.29,9.28-8.89,9.28-8.79-3.39-8.79-9.18c0-5.79,3.19-9.28,8.79-9.28ZM36.72,0c4.89,0,7.79,1.6,8.49,5.49v.3h-4.99c.1-1.7-1.3-2.9-2.9-2.9-3,0-3.69,3.69-3.69,6.59,0,3.49,1.3,5.99,3.59,5.99h.1c.5,0,3.19-.2,3.29-3.59v-1.2h-3.79v-3.29h8.49v10.88h-4.19v-1.5s-1.6,1.7-4.39,1.7c-4.69,0-8.49-3.59-8.49-9.18-.1-5.49,3.69-9.28,8.49-9.28ZM8.07.3l1.8,8.59L11.26.3h8.19v18.07h-5.19V6.09l-2.6,12.28h-4.69l-2.7-11.28v11.28H.08V.3h7.99ZM55.89.2c3.09,0,7.19.8,7.19,4.69,0,2.7-1.5,3.99-3.29,3.99,3.29,0,2.9,1.7,3.09,2.8v6.69h-5.09c.1-5.29,0-.1,0-5.89,0-1.7-.9-1.9-2.8-1.9h-2.6v7.79h-4.99V.2h8.49ZM27.04,4.39v13.88h-5.09V4.39h5.09ZM72.86,3c-3.09,0-3.59,3.49-3.59,6.29v.2c0,2.6.4,6.39,3.59,6.39s3.69-3.79,3.69-6.39c-.1-2.8-.6-6.49-3.69-6.49ZM54.59,3.69h-2.3v3.59h2.4c1.6,0,3.19-.1,3.19-1.9,0-1.8-1.7-1.7-3.29-1.7ZM27.04.3v3.09h-5.09V.3h5.09Z"/>
    </g>
    <g>
      <path class="st1" d="M.78,27.25c0-1.6,1.2-2.6,2.7-2.6,1.2,0,1.8.6,2.2,1.2l-.9.5c-.2-.4-.7-.7-1.2-.7-.9,0-1.6.7-1.6,1.7s.7,1.7,1.6,1.7c.6,0,1-.3,1.2-.7l.9.4c-.4.6-1,1.3-2.2,1.3-1.5-.1-2.7-1.2-2.7-2.8Z"/>
      <path class="st1" d="M15.36,24.66c1.5,0,2.7,1.1,2.7,2.6s-1.1,2.6-2.7,2.6c-1.5,0-2.7-1.1-2.7-2.6.1-1.5,1.2-2.6,2.7-2.6ZM15.36,25.66c-.9,0-1.5.7-1.5,1.7,0,.9.6,1.7,1.5,1.7s1.5-.7,1.5-1.7c.1-1-.5-1.7-1.5-1.7Z"/>
      <path class="st1" d="M27.34,28.05h-.8v1.8h-1.1v-5.09h2.4c1.1,0,1.7.7,1.7,1.6s-.6,1.4-1.1,1.5l1.1,1.9h-1.2l-1-1.7ZM27.74,25.66h-1.1v1.4h1.1c.4,0,.8-.3.8-.7-.1-.4-.4-.7-.8-.7Z"/>
      <path class="st1" d="M37.12,24.76h2.4c1.1,0,1.7.7,1.7,1.6s-.6,1.6-1.7,1.6h-1.3v1.8h-1.1v-4.99ZM39.32,25.66h-1.2v1.4h1.2c.4,0,.7-.3.7-.7.1-.4-.3-.7-.7-.7Z"/>
      <path class="st1" d="M51,24.66c1.5,0,2.7,1.1,2.7,2.6s-1.1,2.6-2.7,2.6c-1.5,0-2.7-1.1-2.7-2.6s1.1-2.6,2.7-2.6ZM51,25.66c-.9,0-1.5.7-1.5,1.7,0,.9.6,1.7,1.5,1.7s1.5-.7,1.5-1.7-.6-1.7-1.5-1.7Z"/>
      <path class="st1" d="M62.98,28.05h-.8v1.8h-1.1v-5.09h2.4c1.1,0,1.7.7,1.7,1.6s-.6,1.4-1.1,1.5l1.1,1.9h-1.2l-1-1.7ZM63.28,25.66h-1.1v1.4h1.1c.4,0,.8-.3.8-.7s-.3-.7-.8-.7Z"/>
      <path class="st1" d="M75.96,28.95h-2.3l-.3.9h-1.2l2-5.09h1.4l2,5.09h-1.2l-.4-.9ZM73.96,28.05h1.7l-.8-2.3-.9,2.3Z"/>
      <path class="st1" d="M85.34,25.66h-1.5v-1h4.09v1h-1.5v4.09h-1.1v-4.09Z"/>
      <path class="st1" d="M95.32,24.76h3.59v.9h-2.5v1.1h2.5v.9h-2.5v1.2h2.5v.9h-3.59v-4.99Z"/>
    </g>
  </g>
</svg>